<?xml version="1.0" encoding="UTF-8" standalone="no"?>
<!-- Created with Inkscape (http://www.inkscape.org/) -->

<svg
   version="1.1"
   id="svg2"
   width="124.02667"
   height="64.599998"
   viewBox="0 0 124.02667 64.599998"
   sodipodi:docname="Analiz logo.eps"
   xmlns:inkscape="http://www.inkscape.org/namespaces/inkscape"
   xmlns:sodipodi="http://sodipodi.sourceforge.net/DTD/sodipodi-0.dtd"
   xmlns="http://www.w3.org/2000/svg"
   xmlns:svg="http://www.w3.org/2000/svg">
  <defs
     id="defs6" />
  <sodipodi:namedview
     id="namedview4"
     pagecolor="#ffffff"
     bordercolor="#000000"
     borderopacity="0.25"
     inkscape:showpageshadow="2"
     inkscape:pageopacity="0.0"
     inkscape:pagecheckerboard="0"
     inkscape:deskcolor="#d1d1d1" />
  <g
     id="g8"
     inkscape:groupmode="layer"
     inkscape:label="ink_ext_XXXXXX"
     transform="matrix(1.3333333,0,0,-1.3333333,0,64.6)">
    <g
       id="g10"
       transform="scale(0.1)">
      <path
         d="M 67.9414,168.555 2.59375,151.055 8.78906,122.109 56.8906,135 23.2227,37.0508 46.3086,0 l 49.293,145.371 89.5584,24.004 0.059,-0.195 0.754,0.41 102.355,27.578 -6.199,28.945 -60.387,-16.347 -65.922,225.679 z m 76.8866,126.332 31.285,-97.348 -69.465,-18.613 z"
         style="fill:#ed1c24;fill-opacity:1;fill-rule:nonzero;stroke:none"
         id="path12" />
      <path
         d="M 0,151.875 6.76953,120.273 289.281,195.977 282.5,227.559 0,151.875"
         style="fill:#231f20;fill-opacity:1;fill-rule:nonzero;stroke:none"
         id="path14" />
      <path
         d="M 371.566,129.766 H 343.43 v 129.3 L 309.648,322.34 V 129.766 H 280.805 V 439.105 L 343.43,317.418 v 106.211 h 28.136 V 129.766"
         style="fill:#231f20;fill-opacity:1;fill-rule:nonzero;stroke:none"
         id="path16" />
      <path
         d="m 717.641,129.766 h -31.309 c -16.641,0 -28.379,3.535 -35.176,10.625 -7.031,7.871 -10.547,22.812 -10.547,44.843 v 238.395 h 28.829 V 185.234 c 0,-11.289 0.722,-18.027 2.128,-20.254 1.407,-2.226 6.329,-3.359 14.766,-3.359 h 31.309 v -31.855"
         style="fill:#231f20;fill-opacity:1;fill-rule:nonzero;stroke:none"
         id="path18" />
      <path
         d="m 788.559,129.766 h -28.848 v 293.863 h 28.848 V 129.766"
         style="fill:#231f20;fill-opacity:1;fill-rule:nonzero;stroke:none"
         id="path20" />
      <path
         d="m 842.914,423.629 v -31.867 l 50.527,0.058 -57.695,-262.054 h 90.195 v 31.855 h -53.476 l 57.695,262.008 h -87.246"
         style="fill:#231f20;fill-opacity:1;fill-rule:nonzero;stroke:none"
         id="path22" />
      <path
         d="m 538.207,217.754 0.625,0.332 86.328,23.266 -5.234,24.394 -50.918,-13.777 -55.586,190.281 -74.102,-225.023 -55.101,-14.766 5.23,-24.395 40.563,10.86 -15.602,-47.617 19.473,-31.231 28.769,87.598 75.516,20.234 z m -66.25,8.223 32.188,97.757 26.386,-82.078 z"
         style="fill:#231f20;fill-opacity:1;fill-rule:nonzero;stroke:none"
         id="path24" />
      <path
         d="m 625.941,240.336 -238.199,-63.813 -5.695,26.641 238.191,63.813 5.703,-26.641"
         style="fill:#231f20;fill-opacity:1;fill-rule:nonzero;stroke:none"
         id="path26" />
      <path
         d="m 801.762,484.457 -68.653,-18.398 5.704,-26.641 69.277,18.566 -6.328,26.473"
         style="fill:#ed1c24;fill-opacity:1;fill-rule:nonzero;stroke:none"
         id="path28" />
      <path
         d="m 149.734,13.5547 v 0.9766 c 4.098,1.1132 6.598,5.0585 7.524,11.8359 0.18,1.5234 0.277,6.8359 0.277,15.957 v 6.6406 l -17.68,26.3477 c -3.542,5.2734 -6.042,8.8477 -7.5,10.7813 -3.312,4.2382 -6.332,7.246 -9.097,9.0625 v 0.9765 c -0.074,0 0.277,-0.0195 1.051,-0.0586 5.246,-0.2929 9.246,-0.4492 11.984,-0.4492 0.742,0 2.711,0.0977 5.914,0.2539 3.188,0.1758 6.008,0.2539 8.469,0.2539 h 1 v -0.9765 c -3.539,-0.879 -5.297,-2.7149 -5.297,-5.5469 0,-1.1914 0.726,-3.1055 2.156,-5.7227 1.238,-2.3242 2.328,-3.9844 3.25,-5 l 17.438,-24.375 3.789,6.0352 c 10.246,16.25 15.371,25.7031 15.371,28.3203 0,2.832 -1.758,4.9414 -5.278,6.2891 l 0.04,0.9765 c 4.3,-0.332 7.632,-0.5078 9.98,-0.5078 0.543,0 1.969,0.0977 4.27,0.2539 2.289,0.1758 4.3,0.2539 6.027,0.2539 h 0.324 v -0.9765 c -6.242,-3.711 -17.402,-18.5938 -33.473,-44.668 v -8.1641 c 0,-8.9062 0.114,-14.2383 0.34,-15.957 0.942,-6.6992 3.453,-10.625 7.532,-11.8359 v -0.9766 c -6.157,0.2539 -11.051,0.3711 -14.637,0.3711 -4.344,0 -8.922,-0.1172 -13.774,-0.3711"
         style="fill:#231f20;fill-opacity:1;fill-rule:nonzero;stroke:none"
         id="path30" />
      <path
         d="m 215.004,13.5547 -0.059,0.7422 c 5.321,3.6914 11.348,13.0664 18.121,28.125 l 24.926,55.6054 h 0.895 l 25.926,-55 c 0.363,-0.7226 0.984,-2.0117 1.863,-3.8476 6.687,-14.2188 12.012,-22.5195 15.969,-24.8828 v -0.7422 c -4.262,0.2539 -8.059,0.3711 -11.379,0.3711 -6.879,0 -12.95,-0.1172 -18.231,-0.3711 l -0.062,0.7422 c 3.406,1.2304 5.113,3.4961 5.113,6.8359 0,2.168 -1.5,6.7969 -4.512,13.8672 l -6.879,16.1133 c -2.269,0.1758 -4.601,0.2344 -6.988,0.2344 h -12.434 c -2.988,0 -5.339,-0.0782 -7.109,-0.2344 l -3.91,-9.7266 c -3.566,-8.8476 -5.332,-14.8633 -5.332,-17.9687 0,-4.3555 2.336,-7.4024 6.992,-9.1211 v -0.7422 c -2.43,0.2539 -6,0.3711 -10.695,0.3711 -4.477,0 -8.551,-0.1172 -12.215,-0.3711 m 26.519,40.9766 c 1.993,-0.1954 4.672,-0.2735 8.09,-0.2735 h 6.793 c 3.887,0 6.739,0.0781 8.59,0.2539 l -11.73,26.5235 -11.743,-26.5039"
         style="fill:#231f20;fill-opacity:1;fill-rule:nonzero;stroke:none"
         id="path32" />
      <path
         d="m 340.895,13.5547 v 0.9766 c 4.101,1.1132 6.601,5.0585 7.519,11.8359 0.18,1.5234 0.281,6.8359 0.281,15.957 v 6.6406 l -17.679,26.3477 c -3.539,5.2734 -6.039,8.8477 -7.5,10.7813 -3.313,4.2382 -6.344,7.246 -9.102,9.0625 v 0.9765 c -0.066,0 0.289,-0.0195 1.051,-0.0586 5.25,-0.2929 9.246,-0.4492 11.992,-0.4492 0.734,0 2.711,0.0977 5.906,0.2539 3.192,0.1758 6.012,0.2539 8.473,0.2539 h 0.996 v -0.9765 c -3.539,-0.879 -5.297,-2.7149 -5.297,-5.5469 0,-1.1914 0.727,-3.1055 2.156,-5.7227 1.243,-2.3242 2.336,-3.9844 3.254,-5 l 17.442,-24.375 3.789,6.0352 c 10.238,16.25 15.371,25.7031 15.371,28.3203 0,2.832 -1.766,4.9414 -5.285,6.2891 l 0.039,0.9765 c 4.304,-0.332 7.633,-0.5078 9.98,-0.5078 0.543,0 1.973,0.0977 4.274,0.2539 2.289,0.1758 4.297,0.2539 6.031,0.2539 h 0.316 v -0.9765 c -6.242,-3.711 -17.398,-18.5938 -33.464,-44.668 v -8.1641 c 0,-8.9062 0.105,-14.2383 0.335,-15.957 0.942,-6.6992 3.461,-10.625 7.528,-11.8359 v -0.9766 c -6.156,0.2539 -11.047,0.3711 -14.637,0.3711 -4.344,0 -8.922,-0.1172 -13.769,-0.3711"
         style="fill:#231f20;fill-opacity:1;fill-rule:nonzero;stroke:none"
         id="path34" />
      <path
         d="m 440.816,41.5625 c 0,-8.4961 0.153,-13.6914 0.43,-15.625 1,-6.4453 3.551,-10.2344 7.672,-11.3867 v -0.9961 c -4.57,0.2539 -9.582,0.3711 -15.094,0.3711 -5.765,0 -10.488,-0.1172 -14.152,-0.3711 l -0.059,0.9961 c 4.16,1.0547 6.754,4.9805 7.731,11.7578 0.261,1.7969 0.39,7.1484 0.39,16.0156 v 42.7149 c 0,5.4297 -2.25,8.8086 -6.75,10.0976 v 0.9961 c 4.629,-0.332 9.059,-0.5078 13.27,-0.5078 4.269,0 8.699,0.1758 13.328,0.5078 v -0.9961 c -4.508,-0.9375 -6.766,-4.2969 -6.766,-10.0976 V 41.5625"
         style="fill:#231f20;fill-opacity:1;fill-rule:nonzero;stroke:none"
         id="path36" />
      <path
         d="m 487.23,48.457 c 0,-9.8437 0.254,-16.2304 0.723,-19.1406 1.231,-7.5195 4.219,-12.5 9.004,-14.9023 l -0.059,-0.8594 c -4.628,0.2539 -8.144,0.3711 -10.566,0.3711 -3.887,0 -7.852,-0.1172 -11.898,-0.3711 l -0.047,0.8594 c 4.914,2.3632 8,7.7734 9.269,16.1914 0.43,3.0468 0.645,9.8828 0.645,20.5273 v 27.8711 c 0,4.5703 -0.371,7.793 -1.094,9.7266 -1.016,2.7148 -3.184,4.7656 -6.461,6.1718 v 0.9766 c 0.078,0 1.324,-0.0391 3.746,-0.1172 2.422,-0.0781 4.551,-0.1172 6.387,-0.1172 3.73,0 7.09,0.0782 10.039,0.2344 8.867,-12.3437 24.863,-30.9766 47.969,-55.918 0.254,-0.2734 0.586,-0.625 0.976,-1.0351 v 20.1953 c 0,10.957 -0.195,17.6562 -0.547,20.1172 -1.132,8.1055 -4.199,13.3594 -9.16,15.7812 l 0.059,0.8594 c 0.683,-0.0195 1.797,-0.0391 3.301,-0.0781 3.593,-0.0977 6.015,-0.1563 7.246,-0.1563 0.644,0 2.246,0.0391 4.843,0.1172 2.598,0.0781 4.844,0.1172 6.797,0.1172 h 0.313 v -0.8594 c -4.883,-2.2851 -7.949,-7.5586 -9.258,-15.8007 -0.43,-2.9883 -0.664,-9.6875 -0.664,-20.1172 V 11.543 h -1.055 C 534.301,29.8828 514.145,54.2969 487.23,84.7852 V 48.457"
         style="fill:#231f20;fill-opacity:1;fill-rule:nonzero;stroke:none"
         id="path38" />
      <path
         d="m 591.762,85.0586 c 0,5.5469 -2.207,8.9062 -6.602,10.0977 v 0.9765 c 4.317,-0.332 8.633,-0.5078 12.91,-0.5078 4.278,0 8.594,0.1758 12.989,0.5078 v -0.9765 c -4.375,-0.9961 -6.563,-4.3555 -6.563,-10.0977 V 42.3242 c 0,-10.0781 0.195,-16.4844 0.547,-19.2773 0.41,-3.125 2.324,-5.0586 5.742,-5.8399 1.113,-0.2539 3.965,-0.3711 8.594,-0.3711 16.621,0 28.496,5.4883 35.625,16.4844 l 0.82,-0.1172 -5.879,-19.2773 h -57.597 -8.36 v 0.9961 c 4.082,0.8203 6.582,4.6875 7.5,11.6211 0.176,1.4258 0.274,6.7187 0.274,15.8593 v 42.6563"
         style="fill:#231f20;fill-opacity:1;fill-rule:nonzero;stroke:none"
         id="path40" />
      <path
         d="m 678.422,13.5547 -0.059,0.7422 c 5.313,3.6914 11.348,13.0664 18.106,28.125 l 24.941,55.6054 h 0.879 l 25.938,-55 c 0.351,-0.7226 0.976,-2.0117 1.855,-3.8476 6.699,-14.2188 12.012,-22.5195 15.977,-24.8828 v -0.7422 c -4.258,0.2539 -8.067,0.3711 -11.387,0.3711 -6.875,0 -12.949,-0.1172 -18.223,-0.3711 l -0.058,0.7422 c 3.398,1.2304 5.097,3.4961 5.097,6.8359 0,2.168 -1.484,6.7969 -4.492,13.8672 l -6.875,16.1133 c -2.285,0.1758 -4.609,0.2344 -7.012,0.2344 h -12.441 c -2.988,0 -5.313,-0.0782 -7.09,-0.2344 l -3.906,-9.7266 c -3.574,-8.8476 -5.352,-14.8633 -5.352,-17.9687 0,-4.3555 2.344,-7.4024 7.012,-9.1211 v -0.7422 c -2.441,0.2539 -5.996,0.3711 -10.703,0.3711 -4.473,0 -8.555,-0.1172 -12.207,-0.3711 m 26.504,40.9766 c 1.992,-0.1954 4.687,-0.2735 8.105,-0.2735 h 6.778 c 3.886,0 6.757,0.0781 8.593,0.2539 L 716.684,81.0352 704.926,54.5313"
         style="fill:#231f20;fill-opacity:1;fill-rule:nonzero;stroke:none"
         id="path42" />
      <path
         d="m 811.293,58.9453 c 1.035,-0.039 2.09,-0.0781 3.203,-0.1367 h 1.875 c 9.785,0 16.621,0.4492 20.43,1.3086 3.633,0.8203 6.621,2.6367 8.965,5.5078 2.343,2.832 3.535,6.3086 3.535,10.3516 0,11.1718 -8.535,16.7578 -25.625,16.7578 -3.613,0 -7.754,-0.0977 -12.383,-0.2539 z m -20.449,-45.3906 -0.078,0.9766 c 4.082,1.1718 6.562,5.0976 7.441,11.8164 0.156,1.289 0.234,6.6015 0.234,15.957 v 41.9922 c 0,6.3672 -2.128,9.8633 -6.406,10.4687 v 0.9961 c 1.328,-0.0976 3.262,-0.1367 5.84,-0.1367 h 30.332 c 9.785,0 17.246,-0.8398 22.363,-2.5195 8.926,-2.9688 13.379,-8.5938 13.379,-16.8946 0,-7.1679 -3.359,-12.4414 -10.078,-15.8593 -4.844,-2.461 -10.937,-3.8086 -18.34,-3.9844 11.778,-1.582 19.649,-7.168 23.574,-16.7969 0.918,-2.2461 2.071,-5.4687 3.516,-9.6094 3.145,-9.1796 6.348,-14.1796 9.57,-15.039 v -1.3672 c -0.468,0 -1.328,0.0391 -2.578,0.0781 -3.828,0.2149 -6.523,0.293 -8.144,0.293 h -8.809 c -1.426,3.7305 -3.203,9.1601 -5.312,16.3281 -0.996,3.4961 -1.778,5.9961 -2.305,7.5391 -1.016,2.9883 -2.051,5.3906 -3.086,7.207 -2.559,4.5313 -5.918,7.5977 -10.059,9.1992 -3.046,1.1524 -7.48,1.7188 -13.281,1.7188 h -2.051 c 0.625,0 -1.152,-0.0782 -5.273,-0.2539 V 42.3047 c 0,-9.0625 0.117,-14.3555 0.332,-15.8984 0.898,-6.7188 3.379,-10.6641 7.441,-11.875 v -0.9766 c -6.23,0.2539 -11.113,0.3711 -14.628,0.3711 -4.219,0 -8.75,-0.1172 -13.594,-0.3711"
         style="fill:#231f20;fill-opacity:1;fill-rule:nonzero;stroke:none"
         id="path44" />
      <path
         d="m 918.871,41.5625 c 0,-8.4961 0.137,-13.6914 0.43,-15.625 0.996,-6.4453 3.554,-10.2344 7.656,-11.3867 v -0.9961 c -4.57,0.2539 -9.59,0.3711 -15.078,0.3711 -5.781,0 -10.488,-0.1172 -14.16,-0.3711 l -0.059,0.9961 c 4.16,1.0547 6.758,4.9805 7.735,11.7578 0.253,1.7969 0.39,7.1484 0.39,16.0156 v 42.7149 c 0,5.4297 -2.246,8.8086 -6.758,10.0976 v 0.9961 c 4.649,-0.332 9.063,-0.5078 13.282,-0.5078 4.277,0 8.691,0.1758 13.32,0.5078 v -0.9961 c -4.512,-0.9375 -6.758,-4.2969 -6.758,-10.0976 V 41.5625"
         style="fill:#231f20;fill-opacity:1;fill-rule:nonzero;stroke:none"
         id="path46" />
    </g>
  </g>
</svg>
